<svg width="337" height="200" viewBox="0 0 337 200" fill="none" xmlns="http://www.w3.org/2000/svg">
<g clip-path="url(#clip0_28_221)">
<rect width="337" height="200" rx="10" fill="#895ADF"/>
<path d="M320.159 215.217L261.443 189.141C258.53 187.847 257.275 184.215 258.663 181.09C260.05 177.966 263.586 176.461 266.499 177.755L325.215 203.831C328.129 205.124 329.383 208.757 327.995 211.881C326.577 215.075 323.072 216.51 320.159 215.217Z" fill="white" fill-opacity="0.18"/>
<path d="M339.553 171.547L280.837 145.471C277.923 144.177 276.669 140.545 278.056 137.42C279.444 134.296 282.98 132.791 285.893 134.085L344.609 160.161C347.522 161.454 348.777 165.087 347.389 168.211C346.002 171.335 342.466 172.84 339.553 171.547Z" fill="white" fill-opacity="0.18"/>
<path d="M358.977 127.807L300.261 101.732C297.348 100.438 296.094 96.8052 297.481 93.681C298.869 90.5567 302.405 89.0517 305.318 90.3454L364.034 116.421C366.947 117.715 368.201 121.348 366.814 124.472C365.426 127.596 361.89 129.101 358.977 127.807Z" fill="white" fill-opacity="0.18"/>
<path opacity="0.4" d="M257.097 93.8664C255.672 93.2339 254.59 92.0054 254.082 90.5327L250.997 81.5986C249.912 78.4569 251.515 74.8467 254.573 73.545C257.631 72.2433 260.998 73.7382 262.083 76.8799L263.202 80.1198L283.653 71.4147C286.712 70.113 290.078 71.6079 291.163 74.7496C292.248 77.8913 290.644 81.5015 287.586 82.8032L261.591 93.8676C260.093 94.4491 258.521 94.4989 257.097 93.8664Z" fill="white" fill-opacity="0.18"/>
<path opacity="0.4" d="M237.672 137.606C236.312 137.002 235.2 135.843 234.657 134.272L231.572 125.338C230.487 122.196 232.09 118.586 235.148 117.284C238.207 115.983 241.573 117.478 242.658 120.619L243.777 123.859L264.229 115.154C267.287 113.852 270.653 115.347 271.738 118.489C272.823 121.631 271.22 125.241 268.161 126.543L242.167 137.607C240.637 138.258 239.031 138.21 237.672 137.606Z" fill="white" fill-opacity="0.18"/>
<path opacity="0.4" d="M219.172 179.262C217.813 178.659 216.7 177.499 216.157 175.929L213.072 166.995C211.987 163.853 213.591 160.243 216.649 158.941C219.707 157.639 223.073 159.134 224.158 162.276L225.277 165.516L245.729 156.811C248.787 155.509 252.153 157.004 253.238 160.146C254.323 163.287 252.72 166.897 249.662 168.199L223.667 179.264C222.138 179.914 220.532 179.866 219.172 179.262Z" fill="white" fill-opacity="0.18"/>
</g>
<defs>
<clipPath id="clip0_28_221">
<rect width="337" height="200" rx="10" fill="white"/>
</clipPath>
</defs>
</svg>
