<svg width="30" height="30" viewBox="0 0 30 30" fill="none" xmlns="http://www.w3.org/2000/svg">
<rect x="0.5" y="0.5" width="29" height="29" rx="14.5" stroke="#D4D4D4"/>
<path d="M15.0166 7.425C12.2583 7.425 10.0166 9.66667 10.0166 12.425V14.8333C10.0166 15.3417 9.79995 16.1167 9.54162 16.55L8.58328 18.1417C7.99162 19.125 8.39995 20.2167 9.48328 20.5833C13.075 21.7833 16.95 21.7833 20.5416 20.5833C21.55 20.25 21.9916 19.0583 21.4416 18.1417L20.4833 16.55C20.2333 16.1167 20.0166 15.3417 20.0166 14.8333V12.425C20.0166 9.675 17.7666 7.425 15.0166 7.425Z" stroke="black" stroke-width="1.5" stroke-miterlimit="10" stroke-linecap="round"/>
<path d="M16.5583 7.66667C16.3 7.59167 16.0333 7.53334 15.7583 7.5C14.9583 7.4 14.1916 7.45834 13.475 7.66667C13.7166 7.05 14.3166 6.61667 15.0166 6.61667C15.7166 6.61667 16.3166 7.05 16.5583 7.66667Z" stroke="black" stroke-width="1.5" stroke-miterlimit="10" stroke-linecap="round" stroke-linejoin="round"/>
<path opacity="0.4" d="M17.5167 20.8833C17.5167 22.2583 16.3917 23.3833 15.0167 23.3833C14.3334 23.3833 13.7001 23.1 13.2501 22.65C12.8001 22.2 12.5167 21.5667 12.5167 20.8833" stroke="black" stroke-width="1.5" stroke-miterlimit="10"/>
</svg>
