<svg width="55" height="55" viewBox="0 0 55 55" fill="none" xmlns="http://www.w3.org/2000/svg">
<path opacity="0.4" d="M33.3437 51.3791C32.5874 51.3791 31.877 50.875 31.6707 50.0958C31.4416 49.1791 31.9687 48.2396 32.8853 47.9875C42.1895 45.5354 48.6749 37.1021 48.6749 27.4771C48.6749 15.7896 39.1645 6.27915 27.477 6.27915C17.5541 6.27915 11.0458 12.0771 7.99784 15.5833H14.7353C15.6749 15.5833 16.4541 16.3625 16.4541 17.3021C16.4541 18.2416 15.7208 19.0437 14.7583 19.0437H4.60617C4.44575 19.0437 4.28534 19.0208 4.12492 18.975C3.91867 18.9062 3.73534 18.8146 3.57492 18.7C3.36867 18.5625 3.20825 18.3791 3.09367 18.1729C2.97909 17.9437 2.88742 17.7146 2.8645 17.4625C2.8645 17.3937 2.8645 17.3479 2.8645 17.2791V6.87498C2.8645 5.9354 3.64367 5.15623 4.58325 5.15623C5.52284 5.15623 6.302 5.9354 6.302 6.87498V12.3521C10.0374 8.34165 17.0728 2.86456 27.4999 2.86456C41.0895 2.86456 52.1353 13.9104 52.1353 27.5C52.1353 38.6833 44.5957 48.4916 33.7791 51.3333C33.6416 51.3562 33.4812 51.3791 33.3437 51.3791Z" fill="#895ADF"/>
<path d="M25.8728 52.0896C25.827 52.0896 25.7583 52.0896 25.7124 52.0667C23.2603 51.9062 20.8541 51.3563 18.5624 50.4625C17.8978 50.2104 17.4624 49.5458 17.4624 48.8354C17.4624 48.6292 17.5083 48.4229 17.577 48.2396C17.9208 47.3687 18.9291 46.9104 19.7999 47.2542C21.7708 48.0333 23.8562 48.4917 25.9645 48.6521H25.9874C26.9041 48.6979 27.5916 49.4771 27.5916 50.3938C27.5916 50.4167 27.5916 50.4625 27.5916 50.4854C27.5228 51.3792 26.7666 52.0896 25.8728 52.0896ZM13.2458 47.1625C12.8562 47.1625 12.4895 47.0479 12.1687 46.7958C10.2437 45.2604 8.57075 43.45 7.17284 41.4104C6.96659 41.1125 6.852 40.7917 6.852 40.4479C6.852 39.875 7.127 39.3479 7.60825 39.0271C8.3645 38.5 9.48742 38.7062 9.99159 39.4625C11.2062 41.2271 12.6499 42.7854 14.3228 44.0917C14.7124 44.4125 14.9645 44.8937 14.9645 45.4208C14.9645 45.8104 14.8499 46.2 14.5978 46.5208C14.277 46.9333 13.7728 47.1625 13.2458 47.1625ZM5.59159 35.9792C4.83534 35.9792 4.17075 35.4979 3.9645 34.7875C3.23117 32.4271 2.8645 29.975 2.8645 27.5C2.8645 26.5604 3.64367 25.7812 4.58325 25.7812C5.52284 25.7812 6.302 26.5604 6.302 27.5C6.302 29.6313 6.62284 31.7396 7.24159 33.7562C7.28742 33.9167 7.31034 34.1 7.31034 34.2833C7.31034 35.0396 6.82909 35.6813 6.11867 35.9104C5.93534 35.9563 5.77492 35.9792 5.59159 35.9792Z" fill="#895ADF"/>
<path opacity="0.4" d="M27.4999 36.6666C32.5625 36.6666 36.6666 32.5626 36.6666 27.5C36.6666 22.4374 32.5625 18.3333 27.4999 18.3333C22.4373 18.3333 18.3333 22.4374 18.3333 27.5C18.3333 32.5626 22.4373 36.6666 27.4999 36.6666Z" fill="#895ADF"/>
</svg>
