<svg width="30" height="30" viewBox="0 0 30 30" fill="none" xmlns="http://www.w3.org/2000/svg">
<rect x="0.5" y="0.5" width="29" height="29" rx="14.5" stroke="#D4D4D4"/>
<path d="M15.0165 7.425C12.2582 7.425 10.0165 9.66667 10.0165 12.425V14.8333C10.0165 15.3417 9.79983 16.1167 9.5415 16.55L8.58316 18.1417C7.9915 19.125 8.39983 20.2167 9.48316 20.5833C13.0748 21.7833 16.9498 21.7833 20.5415 20.5833C21.5498 20.25 21.9915 19.0583 21.4415 18.1417L20.4832 16.55C20.2332 16.1167 20.0165 15.3417 20.0165 14.8333V12.425C20.0165 9.675 17.7665 7.425 15.0165 7.425Z" stroke="black" stroke-width="1.5" stroke-miterlimit="10" stroke-linecap="round"/>
<path d="M16.5584 7.66667C16.3001 7.59167 16.0334 7.53334 15.7584 7.5C14.9584 7.4 14.1918 7.45834 13.4751 7.66667C13.7168 7.05 14.3168 6.61667 15.0168 6.61667C15.7168 6.61667 16.3168 7.05 16.5584 7.66667Z" stroke="black" stroke-width="1.5" stroke-miterlimit="10" stroke-linecap="round" stroke-linejoin="round"/>
<path opacity="0.4" d="M17.5166 20.8833C17.5166 22.2583 16.3916 23.3833 15.0166 23.3833C14.3333 23.3833 13.6999 23.1 13.2499 22.65C12.7999 22.2 12.5166 21.5667 12.5166 20.8833" stroke="black" stroke-width="1.5" stroke-miterlimit="10"/>
<rect x="15" y="7" width="8" height="8" rx="4" fill="#E6533C"/>
</svg>
