<svg width="25" height="24" viewBox="0 0 25 24" fill="none" xmlns="http://www.w3.org/2000/svg">
<path opacity="0.4" d="M11.3435 20.02C16.3196 20.02 20.3535 15.9861 20.3535 11.01C20.3535 6.03391 16.3196 2 11.3435 2C6.36741 2 2.3335 6.03391 2.3335 11.01C2.3335 15.9861 6.36741 20.02 11.3435 20.02Z" fill="#895ADF"/>
<path d="M22.3235 18.95C21.9935 18.34 21.2935 18 20.3535 18C19.6435 18 19.0335 18.29 18.6735 18.79C18.3135 19.29 18.2335 19.96 18.4535 20.63C18.8835 21.93 19.6335 22.22 20.0435 22.27C20.1035 22.28 20.1635 22.28 20.2335 22.28C20.6735 22.28 21.3535 22.09 22.0135 21.1C22.5435 20.33 22.6435 19.56 22.3235 18.95Z" fill="#895ADF"/>
</svg>
